<svg xmlns="http://www.w3.org/2000/svg" width="12.554" height="10.444" viewBox="0 0 12.554 10.444">
  <g id="Icon" transform="translate(0.35 0.35)">
    <path id="Path_7410" data-name="Path 7410" d="M7.838,9.164V1.715A1.024,1.024,0,0,0,6.94.6H1.5A1.024,1.024,0,0,0,.6,1.715V8.267a.9.9,0,0,0,.9.9h.286" transform="translate(-0.6 -0.6)" fill="none" stroke="#3e3e3e" stroke-linecap="round" stroke-linejoin="round" stroke-width="0.7"/>
    <line id="Line_581" data-name="Line 581" x2="1.813" transform="translate(3.54 8.564)" fill="none" stroke="#3e3e3e" stroke-linecap="round" stroke-linejoin="round" stroke-width="0.7"/>
    <path id="Path_7411" data-name="Path 7411" d="M6.141,21.652a1.178,1.178,0,1,1-1.18-1.177A1.178,1.178,0,0,1,6.141,21.652Z" transform="translate(-2.601 -13.088)" fill="none" stroke="#3e3e3e" stroke-linecap="round" stroke-linejoin="round" stroke-width="0.7"/>
    <path id="Path_7412" data-name="Path 7412" d="M25.5,21.652a1.178,1.178,0,1,1-1.18-1.177A1.178,1.178,0,0,1,25.5,21.652Z" transform="translate(-14.765 -13.088)" fill="none" stroke="#3e3e3e" stroke-linecap="round" stroke-linejoin="round" stroke-width="0.7"/>
    <path id="Path_7413" data-name="Path 7413" d="M21.215,19.817H20.073V17.554" transform="translate(-12.835 -11.253)" fill="none" stroke="#3e3e3e" stroke-linecap="round" stroke-linejoin="round" stroke-width="0.7"/>
    <path id="Path_7414" data-name="Path 7414" d="M26.387,14.036h.572A.5.5,0,0,0,27.5,13.6V11.389a1.783,1.783,0,0,0-.383-1.012.174.174,0,0,0-.038-.047c-.023-.029-.042-.052-.057-.067a.163.163,0,0,0-.019-.023l.113.137a.174.174,0,0,0-.038-.047l-.057-.067a.163.163,0,0,0-.019-.023L25.863,8.68a.922.922,0,0,0-.705-.326h-.605" transform="translate(-15.65 -5.472)" fill="none" stroke="#3e3e3e" stroke-linecap="round" stroke-linejoin="round" stroke-width="0.7"/>
  </g>
</svg>
